<svg width="720" height="1517" xmlns="http://www.w3.org/2000/svg" xmlns:xlink="http://www.w3.org/1999/xlink" overflow="hidden"><defs><clipPath id="clip0"><rect x="0" y="0" width="720" height="1517"/></clipPath></defs><g clip-path="url(#clip0)"><rect x="0" y="0" width="720" height="1517.17" fill="#FFFFFF"/><path d="M485 703.276 488.5 697.077 492 703.276 490.25 703.276 490.25 796.889 492 796.889 488.5 803.088 485 796.889 486.75 796.889 486.75 703.276Z" fill="#FF0000" fill-rule="evenodd"/><path d="M35 139.214 38.5 133.015 42 139.214 40.2502 139.214 40.2502 561.863 42 561.863 38.5 568.062 35 561.863 36.7502 561.863 36.7502 139.214Z" fill="#92D050" fill-rule="evenodd"/><path d="M61 1162.33 64.5 1156.13 68 1162.33 66.2501 1162.33 66.2501 1247.94 68 1247.94 64.5 1254.14 61 1247.94 62.7501 1247.94 62.7501 1162.33Z" fill="#92D050" fill-rule="evenodd"/><path d="M48 703.276 51.5002 697.077 55 703.276 53.2499 703.276 53.2499 988.91 55 988.91 51.5002 995.109 48 988.91 49.7501 988.91 49.7501 703.276Z" fill="#92D050" fill-rule="evenodd"/><path d="M61 898.297 64.5001 892.098 68 898.297 66.25 898.297 66.25 988.91 68 988.91 64.5001 995.109 61 988.91 62.75 988.91 62.75 898.297Z" fill="#92D050" fill-rule="evenodd"/><path d="M445 703.276 448.5 697.077 452 703.276 450.25 703.276 450.25 988.91 452 988.91 448.5 995.109 445 988.91 446.75 988.91 446.75 703.276Z" fill="#FF0000" fill-rule="evenodd"/><path d="M432 898.297 435.5 892.098 439 898.297 437.25 898.297 437.25 988.91 439 988.91 435.5 995.109 432 988.91 433.75 988.91 433.75 898.297Z" fill="#FF0000" fill-rule="evenodd"/><path d="M445 1161.33 448.5 1155.13 452 1161.33 450.25 1161.33 450.25 1368.95 452 1368.95 448.5 1375.15 445 1368.95 446.75 1368.95 446.75 1161.33Z" fill="#FF0000" fill-rule="evenodd"/><path d="M272 217.108 276 210.023 280 217.108 278 217.108 278 484.969 280 484.969 276 492.054 272 484.969 274 484.969 274 217.108Z" fill="#FF0000" fill-rule="evenodd"/><path d="M245 141.099 249 134.015 253 141.099 251 141.099 251 561.978 253 561.978 249 569.062 245 561.978 247 561.978 247 141.099Z" fill="#FF0000" fill-rule="evenodd"/><path d="M445 370.125 449 363.04 453 370.125 451 370.125 451 560.978 453 560.978 449 568.062 445 560.978 447 560.978 447 370.125Z" fill="#FF0000" fill-rule="evenodd"/><path d="M25 31.2178C25 30.547 25.5437 30.0033 26.2144 30.0033L179.786 30.0033C180.456 30.0033 181 30.547 181 31.2178L181 61.7924C181 62.4632 180.456 63.0069 179.786 63.0069L26.2144 63.0069C25.5437 63.0069 25 62.4632 25 61.7924Z" fill="#3C7A2E" fill-rule="evenodd"/><text fill="#FFFFFF" font-family="Arial,Arial_MSFontService,sans-serif" font-weight="400" font-size="16.0018" transform="matrix(1 0 0 1.00011 57.7746 53)">Initiator Peer</text><path d="M197 30.2177C197 29.5469 197.544 29.0032 198.214 29.0032L351.786 29.0032C352.456 29.0032 353 29.5469 353 30.2177L353 60.7923C353 61.4631 352.456 62.0068 351.786 62.0068L198.214 62.0068C197.544 62.0068 197 61.4631 197 60.7923Z" fill="#DDD309" fill-rule="evenodd"/><text font-family="Arial,Arial_MSFontService,sans-serif" font-weight="400" font-size="16.0018" transform="matrix(1 0 0 1.00011 212.512 52)">Non</text><text font-family="Arial,Arial_MSFontService,sans-serif" font-weight="400" font-size="16.0018" transform="matrix(1 0 0 1.00011 241.679 52)">-</text><text font-family="Arial,Arial_MSFontService,sans-serif" font-weight="400" font-size="16.0018" transform="matrix(1 0 0 1.00011 247.012 52)">Initiator Peer</text><path d="M370 30.2177C370 29.547 370.544 29.0032 371.214 29.0032L525.786 29.0032C526.456 29.0032 527 29.547 527 30.2177L527 60.7923C527 61.463 526.456 62.0068 525.786 62.0068L371.214 62.0068C370.544 62.0068 370 61.463 370 60.7923Z" fill="#760000" fill-rule="evenodd"/><text fill="#FFFFFF" font-family="Arial,Arial_MSFontService,sans-serif" font-weight="400" font-size="16.0018" transform="matrix(1 0 0 1.00011 435.995 52)">WT</text><path d="M31.167 109.012 697 109.012 697 129.847C697 132.149 695.134 134.015 692.833 134.015L27 134.015 27 113.179C27 110.878 28.8656 109.012 31.167 109.012Z" fill="#3C7A2E" fill-rule="evenodd"/><text fill="#FFFFFF" font-family="Arial,Arial_MSFontService,sans-serif" font-weight="400" font-size="16.0018" transform="matrix(1 0 0 1.00011 262.286 128)">TX approval by initiator peer</text><path d="M30.9999 186.02 697 186.02 697 206.023C697 208.232 695.209 210.023 693 210.023L27 210.023 27 190.021C27 187.811 28.7908 186.02 30.9999 186.02Z" fill="#760000" fill-rule="evenodd"/><text fill="#FFFFFF" font-family="Arial,Arial_MSFontService,sans-serif" font-weight="400" font-size="16.0018" transform="matrix(1 0 0 1.00011 293.62 204)">TX approval by WT</text><path d="M527 142.1 531 135.015 535 142.1 533 142.1 533 179.936 535 179.936 531 187.021 527 179.936 529 179.936 529 142.1Z" fill="#FF0000" fill-rule="evenodd"/><text font-family="Arial,Arial_MSFontService,sans-serif" font-weight="400" font-size="6.6674" transform="matrix(1 0 0 1.00011 536.851 154)">TOLERANCE_IN_BLOCKS_FROM_TX_APPROV</text><text font-family="Arial,Arial_MSFontService,sans-serif" font-weight="400" font-size="6.6674" transform="matrix(1 0 0 1.00011 536.851 162)">AL_BY_INITIATOR_PEER_TO_TX_APPROVAL_</text><text font-family="Arial,Arial_MSFontService,sans-serif" font-weight="400" font-size="6.6674" transform="matrix(1 0 0 1.00011 536.851 170)">BY_WT</text><path d="M31.167 262.029 697 262.029 697 282.864C697 285.166 695.134 287.032 692.833 287.032L27 287.032 27 266.196C27 263.895 28.8656 262.029 31.167 262.029Z" fill="#DDD309" fill-rule="evenodd"/><text font-family="Arial,Arial_MSFontService,sans-serif" font-weight="400" font-size="16.0018" transform="matrix(1 0 0 1.00011 190.74 281)">Receiving WT TX approval by non</text><text font-family="Arial,Arial_MSFontService,sans-serif" font-weight="400" font-size="16.0018" transform="matrix(1 0 0 1.00011 432.333 281)">-</text><text font-family="Arial,Arial_MSFontService,sans-serif" font-weight="400" font-size="16.0018" transform="matrix(1 0 0 1.00011 437.666 281)">initiator peers</text><path d="M527 218.108 531 211.023 535 218.108 533 218.108 533 254.944 535 254.944 531 262.029 527 254.944 529 254.944 529 218.108Z" fill="#FF0000" fill-rule="evenodd"/><text font-family="Arial,Arial_MSFontService,sans-serif" font-weight="400" font-size="6.6674" transform="matrix(1 0 0 1.00011 536.143 230)">TOLERANCE_IN_BLOCKS_FROM_TX_APPROVA</text><text font-family="Arial,Arial_MSFontService,sans-serif" font-weight="400" font-size="6.6674" transform="matrix(1 0 0 1.00011 536.143 238)">L_BY_WT_TO_RECEIVING_WT_TX_APPROVAL_</text><text font-family="Arial,Arial_MSFontService,sans-serif" font-weight="400" font-size="6.6674" transform="matrix(1 0 0 1.00011 536.143 246)">BY_NON_INITIATOR_PEERS</text><path d="M30.9999 339.037 697 339.037 697 359.039C697 361.249 695.209 363.04 693 363.04L27 363.04 27 343.038C27 340.828 28.7908 339.037 30.9999 339.037Z" fill="#DDD309" fill-rule="evenodd"/><text font-family="Arial,Arial_MSFontService,sans-serif" font-weight="400" font-size="16.0018" transform="matrix(1 0 0 1.00011 242.37 358)">TX approval by non</text><text font-family="Arial,Arial_MSFontService,sans-serif" font-weight="400" font-size="16.0018" transform="matrix(1 0 0 1.00011 380.703 358)">-</text><text font-family="Arial,Arial_MSFontService,sans-serif" font-weight="400" font-size="16.0018" transform="matrix(1 0 0 1.00011 386.036 358)">initiator peers</text><path d="M527 370.125 531 363.04 535 370.125 533 370.125 533 407.961 535 407.961 531 415.046 527 407.961 529 407.961 529 370.125Z" fill="#FF0000" fill-rule="evenodd"/><text font-family="Arial,Arial_MSFontService,sans-serif" font-weight="400" font-size="6.6674" transform="matrix(1 0 0 1.00011 535.504 383)">TOLERANCE_IN_BLOCKS_FROM_TX_APPROVAL_</text><text font-family="Arial,Arial_MSFontService,sans-serif" font-weight="400" font-size="6.6674" transform="matrix(1 0 0 1.00011 535.504 391)">BY_NON_INITIATOR_PEER_TO_RECEIVING_NON</text><text font-family="Arial,Arial_MSFontService,sans-serif" font-weight="400" font-size="6.6674" transform="matrix(1 0 0 1.00011 535.504 399)">_INITIATOR_PEERS_TX_APPROVAL_BY_WT</text><path d="M30.9999 492.054 697 492.054 697 512.056C697 514.266 695.209 516.057 693 516.057L27 516.057 27 496.054C27 493.845 28.7908 492.054 30.9999 492.054Z" fill="#DDD309" fill-rule="evenodd"/><text font-family="Arial,Arial_MSFontService,sans-serif" font-weight="400" font-size="16.0018" transform="matrix(1 0 0 1.00011 108.263 511)">Receiving TX approval by non</text><text font-family="Arial,Arial_MSFontService,sans-serif" font-weight="400" font-size="16.0018" transform="matrix(1 0 0 1.00011 320.643 511)">-</text><text font-family="Arial,Arial_MSFontService,sans-serif" font-weight="400" font-size="16.0018" transform="matrix(1 0 0 1.00011 325.976 511)">initiator peers by other non</text><text font-family="Arial,Arial_MSFontService,sans-serif" font-weight="400" font-size="16.0018" transform="matrix(1 0 0 1.00011 514.81 511)">-</text><text font-family="Arial,Arial_MSFontService,sans-serif" font-weight="400" font-size="16.0018" transform="matrix(1 0 0 1.00011 520.143 511)">initiator peers</text><path d="M485 370.125 489 363.04 493 370.125 491 370.125 491 484.969 493 484.969 489 492.054 485 484.969 487 484.969 487 370.125Z" fill="#FF0000" fill-rule="evenodd"/><path d="M31.167 415.046 697 415.046 697 435.881C697 438.182 695.134 440.048 692.833 440.048L27 440.048 27 419.213C27 416.911 28.8656 415.046 31.167 415.046Z" fill="#760000" fill-rule="evenodd"/><text fill="#FFFFFF" font-family="Arial,Arial_MSFontService,sans-serif" font-weight="400" font-size="16.0018" transform="matrix(1 0 0 1.00011 188.693 434)">Receiving non</text><text fill="#FFFFFF" font-family="Arial,Arial_MSFontService,sans-serif" font-weight="400" font-size="16.0018" transform="matrix(1 0 0 1.00011 289.526 434)">-</text><text fill="#FFFFFF" font-family="Arial,Arial_MSFontService,sans-serif" font-weight="400" font-size="16.0018" transform="matrix(1 0 0 1.00011 294.86 434)">initiator peer’s TX approval by WT</text><text font-family="Arial,Arial_MSFontService,sans-serif" font-weight="400" font-size="6.6674" transform="matrix(1 0 0 1.00011 495.727 459)">TOLERANCE_IN_BLOCKS_FROM_TX_APPROVAL_BY_NON</text><text font-family="Arial,Arial_MSFontService,sans-serif" font-weight="400" font-size="6.6674" transform="matrix(1 0 0 1.00011 495.727 467)">_INITIATOR_PEERS_TO_RECEIVING_NON_INITIATOR_TX_</text><text font-family="Arial,Arial_MSFontService,sans-serif" font-weight="400" font-size="6.6674" transform="matrix(1 0 0 1.00011 495.727 475)">APPROVAL_BY_OTHER_NON_INITIATOR_PEERS</text><text font-family="Arial,Arial_MSFontService,sans-serif" font-weight="400" font-size="6.6674" transform="matrix(1 0 0 1.00011 282.236 461)">TOLERANCE_IN_BLOCKS_FROM_TX_APPROVAL</text><text font-family="Arial,Arial_MSFontService,sans-serif" font-weight="400" font-size="6.6674" transform="matrix(1 0 0 1.00011 282.236 469)">_BY_WT_TO_RECEIVING_NON_INITIATOR_TX_A</text><text font-family="Arial,Arial_MSFontService,sans-serif" font-weight="400" font-size="6.6674" transform="matrix(1 0 0 1.00011 282.236 477)">PPROVAL_BY_OTHER_NON_INITIATOR_PEERS</text><path d="M28.9999 569.062 695 569.062 695 589.065C695 591.274 693.209 593.065 691 593.065L25 593.065 25 573.063C25 570.854 26.7908 569.062 28.9999 569.062Z" fill="#3C7A2E" fill-rule="evenodd"/><text fill="#FFFFFF" font-family="Arial,Arial_MSFontService,sans-serif" font-weight="400" font-size="16.0018" transform="matrix(1 0 0 1.00011 179.393 587)">Receiving non</text><text fill="#FFFFFF" font-family="Arial,Arial_MSFontService,sans-serif" font-weight="400" font-size="16.0018" transform="matrix(1 0 0 1.00011 280.227 587)">-</text><text fill="#FFFFFF" font-family="Arial,Arial_MSFontService,sans-serif" font-weight="400" font-size="16.0018" transform="matrix(1 0 0 1.00011 285.56 587)">initiator TX approval by initiator peer</text><text font-family="Arial,Arial_MSFontService,sans-serif" font-weight="400" font-size="6.6674" transform="matrix(1 0 0 1.00011 454.289 535)">TOLERANCE_IN_BLOCKS_FROM_TX_APPROVAL_BY_NON_INITIATOR</text><text font-family="Arial,Arial_MSFontService,sans-serif" font-weight="400" font-size="6.6674" transform="matrix(1 0 0 1.00011 454.289 543)">_PEERS_TO_RECEIVING_NON_INITIATOR_TX_APPROVAL_BY_INITIA</text><text font-family="Arial,Arial_MSFontService,sans-serif" font-weight="400" font-size="6.6674" transform="matrix(1 0 0 1.00011 454.289 551)">TOR_PEER</text><text font-family="Arial,Arial_MSFontService,sans-serif" font-weight="400" font-size="6.6674" transform="matrix(1 0 0 1.00011 255.419 535)">TOLERANCE_IN_BLOCKS_FROM_TX_APPROVAL_BY_</text><text font-family="Arial,Arial_MSFontService,sans-serif" font-weight="400" font-size="6.6674" transform="matrix(1 0 0 1.00011 255.419 543)">INITIATOR_PEER_TO_RECEIVING_ALL_NON_INITIAT</text><text font-family="Arial,Arial_MSFontService,sans-serif" font-weight="400" font-size="6.6674" transform="matrix(1 0 0 1.00011 255.419 551)">OR_TX_APPROVALS_BY_INITIATOR_PEER</text><path d="M31.167 673.074 697 673.074 697 693.909C697 696.211 695.134 698.077 692.833 698.077L27 698.077 27 677.241C27 674.94 28.8656 673.074 31.167 673.074Z" fill="#3C7A2E" fill-rule="evenodd"/><text fill="#FFFFFF" font-family="Arial,Arial_MSFontService,sans-serif" font-weight="400" font-size="16.0018" transform="matrix(1 0 0 1.00011 267.036 692)">TX commit by initiator peer</text><path d="M30.9999 739.081 697 739.081 697 759.083C697 761.293 695.209 763.084 693 763.084L27 763.084 27 743.082C27 740.872 28.7908 739.081 30.9999 739.081Z" fill="#760000" fill-rule="evenodd"/><text fill="#FFFFFF" font-family="Arial,Arial_MSFontService,sans-serif" font-weight="400" font-size="16.0018" transform="matrix(1 0 0 1.00011 122.073 757)">Receiving initiator peer’s TX commitment and SAR response by WT</text><path d="M520 705.276 523.5 699.077 527 705.276 525.25 705.276 525.25 731.882 527 731.882 523.5 738.081 520 731.882 521.75 731.882 521.75 705.276Z" fill="#FF0000" fill-rule="evenodd"/><text font-family="Arial,Arial_MSFontService,sans-serif" font-weight="400" font-size="6.6674" transform="matrix(1 0 0 1.00011 529.456 713)">TOLERANCE_IN_BLOCKS_FROM_TX_COMMITMENT</text><text font-family="Arial,Arial_MSFontService,sans-serif" font-weight="400" font-size="6.6674" transform="matrix(1 0 0 1.00011 529.456 721)">_BY_INITIATOR_PEER_TO_RECEIVING_SAR_RESP</text><text font-family="Arial,Arial_MSFontService,sans-serif" font-weight="400" font-size="6.6674" transform="matrix(1 0 0 1.00011 529.456 729)">ONSE_BY_WT</text><path d="M31.167 803.088 697 803.088 697 823.924C697 826.225 695.134 828.091 692.833 828.091L27 828.091 27 807.256C27 804.954 28.8656 803.088 31.167 803.088Z" fill="#DDD309" fill-rule="evenodd"/><text font-family="Arial,Arial_MSFontService,sans-serif" font-weight="400" font-size="16.0018" transform="matrix(1 0 0 1.00011 139.99 822)">Receiving initiator peer’s TX commitment by non</text><text font-family="Arial,Arial_MSFontService,sans-serif" font-weight="400" font-size="16.0018" transform="matrix(1 0 0 1.00011 482.343 822)">-</text><text font-family="Arial,Arial_MSFontService,sans-serif" font-weight="400" font-size="16.0018" transform="matrix(1 0 0 1.00011 487.677 822)">initiator peers</text><text font-family="Arial,Arial_MSFontService,sans-serif" font-weight="400" font-size="6.6674" transform="matrix(1 0 0 1.00011 493.935 778)">TOLERANCE_IN_BLOCKS_FROM_TX_COMMITMENT_BY_</text><text font-family="Arial,Arial_MSFontService,sans-serif" font-weight="400" font-size="6.6674" transform="matrix(1 0 0 1.00011 493.935 786)">INITIATOR_PEER_TO_RECEIVING_INITIATOR_PEER_TX_</text><text font-family="Arial,Arial_MSFontService,sans-serif" font-weight="400" font-size="6.6674" transform="matrix(1 0 0 1.00011 493.935 794)">COMMITMENT_BY_NON_INITIATOR_PEERS</text><path d="M30.9999 868.095 697 868.095 697 888.098C697 890.307 695.209 892.098 693 892.098L27 892.098 27 872.096C27 869.886 28.7908 868.095 30.9999 868.095Z" fill="#DDD309" fill-rule="evenodd"/><text font-family="Arial,Arial_MSFontService,sans-serif" font-weight="400" font-size="16.0018" transform="matrix(1 0 0 1.00011 229 886)">TX commitment by non</text><text font-family="Arial,Arial_MSFontService,sans-serif" font-weight="400" font-size="16.0018" transform="matrix(1 0 0 1.00011 393.333 886)">-</text><text font-family="Arial,Arial_MSFontService,sans-serif" font-weight="400" font-size="16.0018" transform="matrix(1 0 0 1.00011 398.667 886)">initiator peers</text><path d="M31.167 932.102 697 932.102 697 952.938C697 955.239 695.134 957.105 692.833 957.105L27 957.105 27 936.27C27 933.968 28.8656 932.102 31.167 932.102Z" fill="#760000" fill-rule="evenodd"/><text fill="#FFFFFF" font-family="Arial,Arial_MSFontService,sans-serif" font-weight="400" font-size="16.0018" transform="matrix(1 0 0 1.00011 106.607 951)">Receiving non</text><text fill="#FFFFFF" font-family="Arial,Arial_MSFontService,sans-serif" font-weight="400" font-size="16.0018" transform="matrix(1 0 0 1.00011 207.44 951)">-</text><text fill="#FFFFFF" font-family="Arial,Arial_MSFontService,sans-serif" font-weight="400" font-size="16.0018" transform="matrix(1 0 0 1.00011 212.773 951)">initiator peers’ TX commitment and SAR response by WT</text><text font-family="Arial,Arial_MSFontService,sans-serif" font-weight="400" font-size="6.6674" transform="matrix(1 0 0 1.00011 494.99 903)">TOLERANCE_IN_BLOCKS_FROM_TX_COMMITMENT_BY_</text><text font-family="Arial,Arial_MSFontService,sans-serif" font-weight="400" font-size="6.6674" transform="matrix(1 0 0 1.00011 494.99 911)">NON_INITIATOR_PEER_TO_RECEIVING_NON_INITIATOR</text><text font-family="Arial,Arial_MSFontService,sans-serif" font-weight="400" font-size="6.6674" transform="matrix(1 0 0 1.00011 494.99 919)">_PEERS_TX_COMMITMENT_BY_WT_HAVING_SAR_RESP</text><text font-family="Arial,Arial_MSFontService,sans-serif" font-weight="400" font-size="6.6674" transform="matrix(1 0 0 1.00011 494.99 927)">ONSE_BACK_TO_WT</text><path d="M485 899.297 488.5 893.098 492 899.297 490.25 899.297 490.25 925.903 492 925.903 488.5 932.102 485 925.903 486.75 925.903 486.75 899.297Z" fill="#FF0000" fill-rule="evenodd"/><path d="M30.9999 995.109 697 995.109 697 1015.11C697 1017.32 695.209 1019.11 693 1019.11L27 1019.11 27 999.11C27 996.9 28.7908 995.109 30.9999 995.109Z" fill="#3C7A2E" fill-rule="evenodd"/><text fill="#FFFFFF" font-family="Arial,Arial_MSFontService,sans-serif" font-weight="400" font-size="16.0018" transform="matrix(1 0 0 1.00011 166.31 1013)">Receiving TX commit by initiator and non</text><text fill="#FFFFFF" font-family="Arial,Arial_MSFontService,sans-serif" font-weight="400" font-size="16.0018" transform="matrix(1 0 0 1.00011 456.023 1013)">-</text><text fill="#FFFFFF" font-family="Arial,Arial_MSFontService,sans-serif" font-weight="400" font-size="16.0018" transform="matrix(1 0 0 1.00011 461.357 1013)">initiator peers</text><path d="M31.167 1017.11 697 1017.11 697 1037.95C697 1040.25 695.134 1042.11 692.833 1042.11L27 1042.11 27 1021.28C27 1018.98 28.8656 1017.11 31.167 1017.11Z" fill="#DDD309" fill-rule="evenodd"/><text font-family="Arial,Arial_MSFontService,sans-serif" font-weight="400" font-size="16.0018" transform="matrix(1 0 0 1.00011 320 1036)">By all peers</text><text font-family="Arial,Arial_MSFontService,sans-serif" font-weight="400" font-size="6.6674" transform="matrix(1 0 0 1.00011 455.465 968)">TOLERANCE_IN_BLOCKS_FROM_TX_COMMITMENT_BY_INITIATOR</text><text font-family="Arial,Arial_MSFontService,sans-serif" font-weight="400" font-size="6.6674" transform="matrix(1 0 0 1.00011 455.465 976)">_AND_NON_INITIATOR_PEERS_TO_RECEIVING_TX_COMMITMENT_</text><text font-family="Arial,Arial_MSFontService,sans-serif" font-weight="400" font-size="6.6674" transform="matrix(1 0 0 1.00011 455.465 984)">BY_ALL_PEERS</text><text font-family="Arial,Arial_MSFontService,sans-serif" font-weight="700" font-size="18.6687" transform="matrix(1 0 0 1.00011 36.2423 98)">TX Approval:</text><text font-family="Arial,Arial_MSFontService,sans-serif" font-weight="700" font-size="18.6687" transform="matrix(1 0 0 1.00011 34.5756 665)">TX Commitment:</text><text font-family="Arial,Arial_MSFontService,sans-serif" font-weight="700" font-size="18.6687" transform="matrix(1 0 0 1.00011 34.5756 1121)">Digging game:</text><path d="M538 30.2177C538 29.5469 538.544 29.0032 539.214 29.0032L692.786 29.0032C693.456 29.0032 694 29.5469 694 30.2177L694 60.7923C694 61.4631 693.456 62.0068 692.786 62.0068L539.214 62.0068C538.544 62.0068 538 61.4631 538 60.7923Z" fill="#A6CAEC" fill-rule="evenodd"/><text font-family="Arial,Arial_MSFontService,sans-serif" font-weight="400" font-size="16.0018" transform="matrix(1 0 0 1.00011 599.022 52)">Peer</text><path d="M30.9999 1131.12 697 1131.12 697 1151.13C697 1153.34 695.209 1155.13 693 1155.13L27 1155.13 27 1135.12C27 1132.92 28.7908 1131.12 30.9999 1131.12Z" fill="#A6CAEC" fill-rule="evenodd"/><text font-family="Arial,Arial_MSFontService,sans-serif" font-weight="400" font-size="16.0018" transform="matrix(1 0 0 1.00011 285.5 1150)">Creating ping by peer</text><path d="M30.9999 1193.13 697 1193.13 697 1213.13C697 1215.34 695.209 1217.13 693 1217.13L27 1217.13 27 1197.13C27 1194.92 28.7908 1193.13 30.9999 1193.13Z" fill="#760000" fill-rule="evenodd"/><text fill="#FFFFFF" font-family="Arial,Arial_MSFontService,sans-serif" font-weight="400" font-size="16.0018" transform="matrix(1 0 0 1.00011 200.75 1212)">Receiving</text><text fill="#FFFFFF" font-family="Arial,Arial_MSFontService,sans-serif" font-weight="400" font-size="16.0018" transform="matrix(1 0 0 1.00011 275.083 1212)">all pings</text><text fill="#FFFFFF" font-family="Arial,Arial_MSFontService,sans-serif" font-weight="400" font-size="16.0018" transform="matrix(1 0 0 1.00011 337.917 1212)">and SAR response by WT</text><path d="M28.9999 1255.14 695 1255.14 695 1275.14C695 1277.35 693.209 1279.14 691 1279.14L25 1279.14 25 1259.14C25 1256.93 26.7908 1255.14 28.9999 1255.14Z" fill="#760000" fill-rule="evenodd"/><text fill="#FFFFFF" font-family="Arial,Arial_MSFontService,sans-serif" font-weight="400" font-size="16.0018" transform="matrix(1 0 0 1.00011 284.583 1274)">Creating pong</text><text fill="#FFFFFF" font-family="Arial,Arial_MSFontService,sans-serif" font-weight="400" font-size="16.0018" transform="matrix(1 0 0 1.00011 389.083 1274)">by WT</text><path d="M27.9999 1317.14 694 1317.14 694 1337.15C694 1339.36 692.209 1341.15 690 1341.15L24 1341.15 24 1321.15C24 1318.94 25.7908 1317.14 27.9999 1317.14Z" fill="#A6CAEC" fill-rule="evenodd"/><text font-family="Arial,Arial_MSFontService,sans-serif" font-weight="400" font-size="16.0018" transform="matrix(1 0 0 1.00011 236.701 1335)">Receiving pong in</text><text font-family="Arial,Arial_MSFontService,sans-serif" font-weight="400" font-size="16.0018" transform="matrix(1 0 0 1.00011 367.701 1335)">boomlet</text><text font-family="Arial,Arial_MSFontService,sans-serif" font-weight="400" font-size="16.0018" transform="matrix(1 0 0 1.00011 428.868 1335)">by peer</text><path d="M485 1159.33 488.5 1153.13 492 1159.33 490.25 1159.33 490.25 1185.93 492 1185.93 488.5 1192.13 485 1185.93 486.75 1185.93 486.75 1159.33Z" fill="#FF0000" fill-rule="evenodd"/><text font-family="Arial,Arial_MSFontService,sans-serif" font-weight="400" font-size="6.6674" transform="matrix(1 0 0 1.00011 495.727 1167)">TOLERANCE_IN_BLOCKS_FROM_CREATING_PING_TO</text><text font-family="Arial,Arial_MSFontService,sans-serif" font-weight="400" font-size="6.6674" transform="matrix(1 0 0 1.00011 495.727 1175)">_RECEIVING_ALL_PINGS_BY_WT_AND_HAVING_SAR_</text><text font-family="Arial,Arial_MSFontService,sans-serif" font-weight="400" font-size="6.6674" transform="matrix(1 0 0 1.00011 495.727 1183)">RESPONSE_BACK_TO_WT</text><path d="M485 1284.34 488.5 1278.14 492 1284.34 490.25 1284.34 490.25 1310.95 492 1310.95 488.5 1317.14 485 1310.95 486.75 1310.95 486.75 1284.34Z" fill="#FF0000" fill-rule="evenodd"/><text font-family="Arial,Arial_MSFontService,sans-serif" font-weight="400" font-size="6.6674" transform="matrix(1 0 0 1.00011 495.282 1296)">TOLERANCE_IN_BLOCKS_FROM_CREATING_PONG_BY_WT</text><text font-family="Arial,Arial_MSFontService,sans-serif" font-weight="400" font-size="6.6674" transform="matrix(1 0 0 1.00011 495.282 1304)">_TO_REVIEWING_THE_PONG_IN_PEERS_BOOMLET</text><path d="M27.9999 1378.15 694 1378.15 694 1398.15C694 1400.36 692.209 1402.15 690 1402.15L24 1402.15 24 1382.15C24 1379.94 25.7908 1378.15 27.9999 1378.15Z" fill="#A6CAEC" fill-rule="evenodd"/><text font-family="Arial,Arial_MSFontService,sans-serif" font-weight="400" font-size="16.0018" transform="matrix(1 0 0 1.00011 186.915 1396)">Reviewing</text><text font-family="Arial,Arial_MSFontService,sans-serif" font-weight="400" font-size="16.0018" transform="matrix(1 0 0 1.00011 264.748 1396)">pong</text><text font-family="Arial,Arial_MSFontService,sans-serif" font-weight="400" font-size="16.0018" transform="matrix(1 0 0 1.00011 304.581 1396)">in other peers’</text><text font-family="Arial,Arial_MSFontService,sans-serif" font-weight="400" font-size="16.0018" transform="matrix(1 0 0 1.00011 409.488 1396)">boomlet</text><text font-family="Arial,Arial_MSFontService,sans-serif" font-weight="400" font-size="16.0018" transform="matrix(1 0 0 1.00011 470.655 1396)">by</text><text font-family="Arial,Arial_MSFontService,sans-serif" font-weight="400" font-size="16.0018" transform="matrix(1 0 0 1.00011 491.988 1396)">peers</text><text font-family="Arial,Arial_MSFontService,sans-serif" font-weight="400" font-size="6.6674" transform="matrix(1 0 0 1.00011 455.465 1356)">TOLERANCE_IN_BLOCKS_FROM_CREATING_PING_BY_OTHER_PEERS</text><text font-family="Arial,Arial_MSFontService,sans-serif" font-weight="400" font-size="6.6674" transform="matrix(1 0 0 1.00011 455.465 1364)">_TO_REVIEWING_THE_PING_IN_PEER_BOOMLET</text><text font-family="Arial,Arial_MSFontService,sans-serif" font-weight="400" font-size="6.6674" transform="matrix(1 0 0 1.00011 46.6449 536)">REQUIRED_MINIMUM_DISTANCE_IN_BLOCKS_BETWEEN</text><text font-family="Arial,Arial_MSFontService,sans-serif" font-weight="400" font-size="6.6674" transform="matrix(1 0 0 1.00011 46.6449 544)">_INITIATOR_PEER_TX_APPROVAL_AND_RECEIVING_ALL</text><text font-family="Arial,Arial_MSFontService,sans-serif" font-weight="400" font-size="6.6674" transform="matrix(1 0 0 1.00011 46.6449 552)">_NON_INITIATOR_TX_APPROVALS_BY_INITIATOR_PEER</text><text font-family="Arial,Arial_MSFontService,sans-serif" font-weight="400" font-size="6.6674" transform="matrix(1 0 0 1.00011 72.4292 970)">REQUIRED_MINIMUM_DISTANCE_IN_BLOCKS_BETWEEN_PEER_</text><text font-family="Arial,Arial_MSFontService,sans-serif" font-weight="400" font-size="6.6674" transform="matrix(1 0 0 1.00011 72.4292 978)">TX_COMMITMENT_AND_RECEIVING_ALL_TX_COMMITMENT_BY_</text><text font-family="Arial,Arial_MSFontService,sans-serif" font-weight="400" font-size="6.6674" transform="matrix(1 0 0 1.00011 72.4292 986)">PEERS</text><text font-family="Arial,Arial_MSFontService,sans-serif" font-weight="400" font-size="6.6674" transform="matrix(1 0 0 1.00011 70.1132 1232)">REQUIRED_MINIMUM_DISTANCE_IN_BLOCKS</text><text font-family="Arial,Arial_MSFontService,sans-serif" font-weight="400" font-size="6.6674" transform="matrix(1 0 0 1.00011 70.1132 1240)">_BETWEEN_PING_AND_PONG</text></g></svg>